{
    "asset" : {
        "generator" : "Khronos glTF Blender I/O v1.5.17",
        "version" : "2.0"
    },
    "scene" : 0,
    "scenes" : [
        {
            "name" : "Scene",
            "nodes" : [
                0
            ]
        }
    ],
    "nodes" : [
        {
            "mesh" : 0,
            "name" : "FleurBleue",
            "scale" : [
                0.023293575271964073,
                0.023293575271964073,
                0.023293575271964073
            ]
        }
    ],
    "materials" : [
        {
            "doubleSided" : true,
            "name" : "Bleu.023",
            "pbrMetallicRoughness" : {
                "baseColorFactor" : [
                    0.1138952374458313,
                    0.3182412385940552,
                    0.8000000715255737,
                    1
                ],
                "metallicFactor" : 0,
                "roughnessFactor" : 0.5
            }
        },
        {
            "doubleSided" : true,
            "name" : "Bleu.006",
            "pbrMetallicRoughness" : {
                "baseColorFactor" : [
                    0.1138952374458313,
                    0.3182412385940552,
                    0.8000000715255737,
                    1
                ],
                "metallicFactor" : 0,
                "roughnessFactor" : 0.5
            }
        }
    ],
    "meshes" : [
        {
            "name" : "FleurBleue",
            "primitives" : [
                {
                    "attributes" : {
                        "POSITION" : 0,
                        "NORMAL" : 1,
                        "TEXCOORD_0" : 2
                    },
                    "indices" : 3,
                    "material" : 0
                },
                {
                    "attributes" : {
                        "POSITION" : 4,
                        "NORMAL" : 5,
                        "TEXCOORD_0" : 6
                    },
                    "indices" : 7,
                    "material" : 1
                }
            ]
        }
    ],
    "accessors" : [
        {
            "bufferView" : 0,
            "componentType" : 5126,
            "count" : 14848,
            "max" : [
                2.4531455039978027,
                0.8094401359558105,
                2.451448678970337
            ],
            "min" : [
                -2.453225612640381,
                -2.143473830074072e-05,
                -2.4549224376678467
            ],
            "type" : "VEC3"
        },
        {
            "bufferView" : 1,
            "componentType" : 5126,
            "count" : 14848,
            "type" : "VEC3"
        },
        {
            "bufferView" : 2,
            "componentType" : 5126,
            "count" : 14848,
            "type" : "VEC2"
        },
        {
            "bufferView" : 3,
            "componentType" : 5123,
            "count" : 22272,
            "type" : "SCALAR"
        },
        {
            "bufferView" : 4,
            "componentType" : 5126,
            "count" : 14848,
            "max" : [
                2.453152894973755,
                0.8094363212585449,
                2.4514522552490234
            ],
            "min" : [
                -2.4532177448272705,
                -2.524943556636572e-05,
                -2.454918384552002
            ],
            "type" : "VEC3"
        },
        {
            "bufferView" : 5,
            "componentType" : 5126,
            "count" : 14848,
            "type" : "VEC3"
        },
        {
            "bufferView" : 6,
            "componentType" : 5126,
            "count" : 14848,
            "type" : "VEC2"
        },
        {
            "bufferView" : 7,
            "componentType" : 5123,
            "count" : 22272,
            "type" : "SCALAR"
        }
    ],
    "bufferViews" : [
        {
            "buffer" : 0,
            "byteLength" : 178176,
            "byteOffset" : 0
        },
        {
            "buffer" : 0,
            "byteLength" : 178176,
            "byteOffset" : 178176
        },
        {
            "buffer" : 0,
            "byteLength" : 118784,
            "byteOffset" : 356352
        },
        {
            "buffer" : 0,
            "byteLength" : 44544,
            "byteOffset" : 475136
        },
        {
            "buffer" : 0,
            "byteLength" : 178176,
            "byteOffset" : 519680
        },
        {
            "buffer" : 0,
            "byteLength" : 178176,
            "byteOffset" : 697856
        },
        {
            "buffer" : 0,
            "byteLength" : 118784,
            "byteOffset" : 876032
        },
        {
            "buffer" : 0,
            "byteLength" : 44544,
            "byteOffset" : 994816
        }
    ],
    "buffers" : [
        {
            "byteLength" : 1039360,
            "uri" : "m_FleurBleue_desert.bin"
        }
    ]
}
