{
    "asset" : {
        "generator" : "Khronos glTF Blender I/O v1.0.5",
        "version" : "2.0"
    },
    "scene" : 0,
    "scenes" : [
        {
            "name" : "Scene",
            "nodes" : [
                4
            ]
        }
    ],
    "nodes" : [
        {
            "name" : "Aile gauche",
            "rotation" : [
                -0.7071068286895752,
                2.107342567114756e-08,
                1.6604582242507604e-07,
                0.7071067094802856
            ],
            "scale" : [
                1,
                1.0000001192092896,
                1
            ],
            "translation" : [
                2.8312206268310547e-06,
                -5.364418029785156e-07,
                1.487787812948227e-07
            ]
        },
        {
            "name" : "Aile droite",
            "rotation" : [
                0.43624934554100037,
                0.7118968963623047,
                0.49896353483200073,
                0.23221711814403534
            ],
            "scale" : [
                1.0000003576278687,
                1.0000003576278687,
                1.000000238418579
            ],
            "translation" : [
                4.381290636956692e-06,
                -1.34296715259552e-06,
                1.296401023864746e-06
            ]
        },
        {
            "mesh" : 0,
            "name" : "papillon START",
            "skin" : 0
        },
        {
            "children" : [
                2,
                0,
                1
            ],
            "name" : "Animation.001"
        },
        {
            "children" : [
                3
            ],
            "name" : "Animation",
            "rotation" : [
                -0.9814850091934204,
                -0.12080209702253342,
                0.14761096239089966,
                0.01746894046664238
            ],
            "translation" : [
                -0.0012402534484863281,
                0.03894805908203125,
                -0.016767263412475586
            ]
        }
    ],
    "animations" : [
        {
            "channels" : [
                {
                    "sampler" : 0,
                    "target" : {
                        "node" : 0,
                        "path" : "translation"
                    }
                },
                {
                    "sampler" : 1,
                    "target" : {
                        "node" : 0,
                        "path" : "rotation"
                    }
                },
                {
                    "sampler" : 2,
                    "target" : {
                        "node" : 0,
                        "path" : "scale"
                    }
                },
                {
                    "sampler" : 3,
                    "target" : {
                        "node" : 1,
                        "path" : "translation"
                    }
                },
                {
                    "sampler" : 4,
                    "target" : {
                        "node" : 1,
                        "path" : "rotation"
                    }
                },
                {
                    "sampler" : 5,
                    "target" : {
                        "node" : 1,
                        "path" : "scale"
                    }
                }
            ],
            "name" : "ArmatureAction.002_Animation.001",
            "samplers" : [
                {
                    "input" : 7,
                    "interpolation" : "LINEAR",
                    "output" : 8
                },
                {
                    "input" : 7,
                    "interpolation" : "LINEAR",
                    "output" : 9
                },
                {
                    "input" : 7,
                    "interpolation" : "LINEAR",
                    "output" : 10
                },
                {
                    "input" : 7,
                    "interpolation" : "LINEAR",
                    "output" : 11
                },
                {
                    "input" : 7,
                    "interpolation" : "LINEAR",
                    "output" : 12
                },
                {
                    "input" : 7,
                    "interpolation" : "LINEAR",
                    "output" : 13
                }
            ]
        }
    ],
    "materials" : [
        {
            "doubleSided" : true,
            "emissiveFactor" : [
                1,
                1,
                1
            ],
            "name" : "aile",
            "pbrMetallicRoughness" : {
                "baseColorFactor" : [
                    1,
                    1,
                    1,
                    1
                ],
                "metallicFactor" : 1,
                "roughnessFactor" : 1
            }
        }
    ],
    "meshes" : [
        {
            "name" : "Circle.009",
            "primitives" : [
                {
                    "attributes" : {
                        "POSITION" : 0,
                        "NORMAL" : 1,
                        "TEXCOORD_0" : 2,
                        "JOINTS_0" : 3,
                        "WEIGHTS_0" : 4
                    },
                    "indices" : 5,
                    "material" : 0
                }
            ]
        }
    ],
    "skins" : [
        {
            "inverseBindMatrices" : 6,
            "joints" : [
                0,
                1
            ],
            "name" : "Animation.001"
        }
    ],
    "accessors" : [
        {
            "bufferView" : 0,
            "componentType" : 5126,
            "count" : 10550,
            "max" : [
                7.656864166259766,
                5.915816783905029,
                6.259142875671387
            ],
            "min" : [
                6.570867538452148,
                3.200650691986084,
                4.392361640930176
            ],
            "type" : "VEC3"
        },
        {
            "bufferView" : 1,
            "componentType" : 5126,
            "count" : 10550,
            "type" : "VEC3"
        },
        {
            "bufferView" : 2,
            "componentType" : 5126,
            "count" : 10550,
            "type" : "VEC2"
        },
        {
            "bufferView" : 3,
            "componentType" : 5123,
            "count" : 10550,
            "type" : "VEC4"
        },
        {
            "bufferView" : 4,
            "componentType" : 5126,
            "count" : 10550,
            "type" : "VEC4"
        },
        {
            "bufferView" : 5,
            "componentType" : 5123,
            "count" : 12648,
            "type" : "SCALAR"
        },
        {
            "bufferView" : 6,
            "componentType" : 5126,
            "count" : 2,
            "type" : "MAT4"
        },
        {
            "bufferView" : 7,
            "componentType" : 5126,
            "count" : 280,
            "max" : [
                11.666666666666666
            ],
            "min" : [
                0.041666666666666664
            ],
            "type" : "SCALAR"
        },
        {
            "bufferView" : 8,
            "componentType" : 5126,
            "count" : 280,
            "type" : "VEC3"
        },
        {
            "bufferView" : 9,
            "componentType" : 5126,
            "count" : 280,
            "type" : "VEC4"
        },
        {
            "bufferView" : 10,
            "componentType" : 5126,
            "count" : 280,
            "type" : "VEC3"
        },
        {
            "bufferView" : 11,
            "componentType" : 5126,
            "count" : 280,
            "type" : "VEC3"
        },
        {
            "bufferView" : 12,
            "componentType" : 5126,
            "count" : 280,
            "type" : "VEC4"
        },
        {
            "bufferView" : 13,
            "componentType" : 5126,
            "count" : 280,
            "type" : "VEC3"
        }
    ],
    "bufferViews" : [
        {
            "buffer" : 0,
            "byteLength" : 126600,
            "byteOffset" : 0
        },
        {
            "buffer" : 0,
            "byteLength" : 126600,
            "byteOffset" : 126600
        },
        {
            "buffer" : 0,
            "byteLength" : 84400,
            "byteOffset" : 253200
        },
        {
            "buffer" : 0,
            "byteLength" : 84400,
            "byteOffset" : 337600
        },
        {
            "buffer" : 0,
            "byteLength" : 168800,
            "byteOffset" : 422000
        },
        {
            "buffer" : 0,
            "byteLength" : 25296,
            "byteOffset" : 590800
        },
        {
            "buffer" : 0,
            "byteLength" : 128,
            "byteOffset" : 616096
        },
        {
            "buffer" : 0,
            "byteLength" : 1120,
            "byteOffset" : 616224
        },
        {
            "buffer" : 0,
            "byteLength" : 3360,
            "byteOffset" : 617344
        },
        {
            "buffer" : 0,
            "byteLength" : 4480,
            "byteOffset" : 620704
        },
        {
            "buffer" : 0,
            "byteLength" : 3360,
            "byteOffset" : 625184
        },
        {
            "buffer" : 0,
            "byteLength" : 3360,
            "byteOffset" : 628544
        },
        {
            "buffer" : 0,
            "byteLength" : 4480,
            "byteOffset" : 631904
        },
        {
            "buffer" : 0,
            "byteLength" : 3360,
            "byteOffset" : 636384
        }
    ],
    "buffers" : [
        {
            "byteLength" : 639744,
            "uri" : "data:application/octet-stream;base64,"
        }
    ]
}
