{
    "asset" : {
        "generator" : "Khronos glTF Blender I/O v1.6.16",
        "version" : "2.0"
    },
    "scene" : 0,
    "scenes" : [
        {
            "name" : "Scene",
            "nodes" : [
                3
            ]
        }
    ],
    "nodes" : [
        {
            "name" : "Aile gauche",
            "translation" : [
                3.2366934021865745e-08,
                8.188003164377733e-08,
                8.199067202951937e-09
            ]
        },
        {
            "name" : "Aile droite",
            "rotation" : [
                -0.4726771116256714,
                -0.15056674182415009,
                -0.8562077283859253,
                0.14427247643470764
            ],
            "translation" : [
                -4.964913955518568e-07,
                3.0812947215963504e-07,
                1.6553357795601187e-07
            ]
        },
        {
            "mesh" : 0,
            "name" : "papillon START",
            "skin" : 0
        },
        {
            "children" : [
                2,
                0,
                1
            ],
            "name" : "Animation",
            "rotation" : [
                0.7063663601875305,
                0.18979644775390625,
                -0.018955452367663383,
                0.6816630959510803
            ],
            "translation" : [
                5.900000095367432,
                7.199999809265137,
                -3.0999999046325684
            ]
        }
    ],
    "animations" : [
        {
            "channels" : [
                {
                    "sampler" : 0,
                    "target" : {
                        "node" : 0,
                        "path" : "translation"
                    }
                },
                {
                    "sampler" : 1,
                    "target" : {
                        "node" : 0,
                        "path" : "rotation"
                    }
                },
                {
                    "sampler" : 2,
                    "target" : {
                        "node" : 0,
                        "path" : "scale"
                    }
                },
                {
                    "sampler" : 3,
                    "target" : {
                        "node" : 1,
                        "path" : "translation"
                    }
                },
                {
                    "sampler" : 4,
                    "target" : {
                        "node" : 1,
                        "path" : "rotation"
                    }
                },
                {
                    "sampler" : 5,
                    "target" : {
                        "node" : 1,
                        "path" : "scale"
                    }
                }
            ],
            "name" : "ArmatureAction.002",
            "samplers" : [
                {
                    "input" : 7,
                    "interpolation" : "LINEAR",
                    "output" : 8
                },
                {
                    "input" : 7,
                    "interpolation" : "LINEAR",
                    "output" : 9
                },
                {
                    "input" : 7,
                    "interpolation" : "LINEAR",
                    "output" : 10
                },
                {
                    "input" : 7,
                    "interpolation" : "LINEAR",
                    "output" : 11
                },
                {
                    "input" : 7,
                    "interpolation" : "LINEAR",
                    "output" : 12
                },
                {
                    "input" : 7,
                    "interpolation" : "LINEAR",
                    "output" : 13
                }
            ]
        }
    ],
    "materials" : [
        {
            "doubleSided" : true,
            "emissiveFactor" : [
                1,
                1,
                1
            ],
            "name" : "aile",
            "pbrMetallicRoughness" : {}
        }
    ],
    "meshes" : [
        {
            "name" : "Circle.009",
            "primitives" : [
                {
                    "attributes" : {
                        "POSITION" : 0,
                        "NORMAL" : 1,
                        "TEXCOORD_0" : 2,
                        "JOINTS_0" : 3,
                        "WEIGHTS_0" : 4
                    },
                    "indices" : 5,
                    "material" : 0
                }
            ]
        }
    ],
    "skins" : [
        {
            "inverseBindMatrices" : 6,
            "joints" : [
                0,
                1
            ],
            "name" : "Animation"
        }
    ],
    "accessors" : [
        {
            "bufferView" : 0,
            "componentType" : 5126,
            "count" : 7920,
            "max" : [
                6.280886650085449,
                8.10912036895752,
                -1.7128667831420898
            ],
            "min" : [
                5.888806343078613,
                6.200998306274414,
                -4.480736255645752
            ],
            "type" : "VEC3"
        },
        {
            "bufferView" : 1,
            "componentType" : 5126,
            "count" : 7920,
            "type" : "VEC3"
        },
        {
            "bufferView" : 2,
            "componentType" : 5126,
            "count" : 7920,
            "type" : "VEC2"
        },
        {
            "bufferView" : 3,
            "componentType" : 5121,
            "count" : 7920,
            "type" : "VEC4"
        },
        {
            "bufferView" : 4,
            "componentType" : 5126,
            "count" : 7920,
            "type" : "VEC4"
        },
        {
            "bufferView" : 5,
            "componentType" : 5123,
            "count" : 12648,
            "type" : "SCALAR"
        },
        {
            "bufferView" : 6,
            "componentType" : 5126,
            "count" : 2,
            "type" : "MAT4"
        },
        {
            "bufferView" : 7,
            "componentType" : 5126,
            "count" : 280,
            "max" : [
                11.666666666666666
            ],
            "min" : [
                0.041666666666666664
            ],
            "type" : "SCALAR"
        },
        {
            "bufferView" : 8,
            "componentType" : 5126,
            "count" : 280,
            "type" : "VEC3"
        },
        {
            "bufferView" : 9,
            "componentType" : 5126,
            "count" : 280,
            "type" : "VEC4"
        },
        {
            "bufferView" : 10,
            "componentType" : 5126,
            "count" : 280,
            "type" : "VEC3"
        },
        {
            "bufferView" : 11,
            "componentType" : 5126,
            "count" : 280,
            "type" : "VEC3"
        },
        {
            "bufferView" : 12,
            "componentType" : 5126,
            "count" : 280,
            "type" : "VEC4"
        },
        {
            "bufferView" : 13,
            "componentType" : 5126,
            "count" : 280,
            "type" : "VEC3"
        }
    ],
    "bufferViews" : [
        {
            "buffer" : 0,
            "byteLength" : 95040,
            "byteOffset" : 0
        },
        {
            "buffer" : 0,
            "byteLength" : 95040,
            "byteOffset" : 95040
        },
        {
            "buffer" : 0,
            "byteLength" : 63360,
            "byteOffset" : 190080
        },
        {
            "buffer" : 0,
            "byteLength" : 31680,
            "byteOffset" : 253440
        },
        {
            "buffer" : 0,
            "byteLength" : 126720,
            "byteOffset" : 285120
        },
        {
            "buffer" : 0,
            "byteLength" : 25296,
            "byteOffset" : 411840
        },
        {
            "buffer" : 0,
            "byteLength" : 128,
            "byteOffset" : 437136
        },
        {
            "buffer" : 0,
            "byteLength" : 1120,
            "byteOffset" : 437264
        },
        {
            "buffer" : 0,
            "byteLength" : 3360,
            "byteOffset" : 438384
        },
        {
            "buffer" : 0,
            "byteLength" : 4480,
            "byteOffset" : 441744
        },
        {
            "buffer" : 0,
            "byteLength" : 3360,
            "byteOffset" : 446224
        },
        {
            "buffer" : 0,
            "byteLength" : 3360,
            "byteOffset" : 449584
        },
        {
            "buffer" : 0,
            "byteLength" : 4480,
            "byteOffset" : 452944
        },
        {
            "buffer" : 0,
            "byteLength" : 3360,
            "byteOffset" : 457424
        }
    ],
    "buffers" : [
        {
            "byteLength" : 460784,
            "uri" : "data:application/octet-stream;base64,"
        }
    ]
}
