{
    "asset" : {
        "generator" : "Khronos glTF Blender I/O v1.4.40",
        "version" : "2.0"
    },
    "scene" : 0,
    "scenes" : [
        {
            "name" : "Scene",
            "nodes" : [
                0,
                1,
                2
            ]
        }
    ],
    "nodes" : [
        {
            "mesh" : 0,
            "name" : "base"
        },
        {
            "mesh" : 1,
            "name" : "Petales 01"
        },
        {
            "mesh" : 2,
            "name" : "Petales 02"
        }
    ],
    "materials" : [
        {
            "doubleSided" : true,
            "name" : "FlowerStalk.001",
            "pbrMetallicRoughness" : {
                "baseColorFactor" : [
                    0.37478068470954895,
                    0.8000000715255737,
                    0.10802296549081802,
                    1
                ],
                "metallicFactor" : 0,
                "roughnessFactor" : 0.5
            }
        },
        {
            "doubleSided" : true,
            "name" : "Core",
            "pbrMetallicRoughness" : {
                "baseColorFactor" : [
                    0.8000000715255737,
                    0.5938764214515686,
                    0.042737849056720734,
                    1
                ],
                "metallicFactor" : 0,
                "roughnessFactor" : 0.5
            }
        },
        {
            "doubleSided" : true,
            "name" : "Blossoms.003",
            "pbrMetallicRoughness" : {
                "baseColorFactor" : [
                    1,
                    1,
                    1,
                    1
                ],
                "metallicFactor" : 0,
                "roughnessFactor" : 0.5
            }
        },
        {
            "doubleSided" : true,
            "name" : "Material",
            "pbrMetallicRoughness" : {
                "baseColorFactor" : [
                    1,
                    0.842631459236145,
                    0.7383580207824707,
                    1
                ],
                "metallicFactor" : 0,
                "roughnessFactor" : 0.5
            }
        }
    ],
    "meshes" : [
        {
            "name" : "Sphere.002",
            "primitives" : [
                {
                    "attributes" : {
                        "POSITION" : 0,
                        "NORMAL" : 1,
                        "TEXCOORD_0" : 2
                    },
                    "indices" : 3,
                    "material" : 0
                },
                {
                    "attributes" : {
                        "POSITION" : 4,
                        "NORMAL" : 5,
                        "TEXCOORD_0" : 6
                    },
                    "indices" : 7,
                    "material" : 1
                }
            ]
        },
        {
            "name" : "Cylinder.001",
            "primitives" : [
                {
                    "attributes" : {
                        "POSITION" : 8,
                        "NORMAL" : 9
                    },
                    "indices" : 10,
                    "material" : 2
                }
            ]
        },
        {
            "name" : "Cylinder.002",
            "primitives" : [
                {
                    "attributes" : {
                        "POSITION" : 11,
                        "NORMAL" : 12
                    },
                    "indices" : 13,
                    "material" : 3
                }
            ]
        }
    ],
    "accessors" : [
        {
            "bufferView" : 0,
            "componentType" : 5126,
            "count" : 1088,
            "max" : [
                0.019414011389017105,
                0.00576784135773778,
                0.019487861543893814
            ],
            "min" : [
                -0.01991613581776619,
                -0.01020728424191475,
                -0.019858133047819138
            ],
            "type" : "VEC3"
        },
        {
            "bufferView" : 1,
            "componentType" : 5126,
            "count" : 1088,
            "type" : "VEC3"
        },
        {
            "bufferView" : 2,
            "componentType" : 5126,
            "count" : 1088,
            "type" : "VEC2"
        },
        {
            "bufferView" : 3,
            "componentType" : 5123,
            "count" : 1716,
            "type" : "SCALAR"
        },
        {
            "bufferView" : 4,
            "componentType" : 5126,
            "count" : 1664,
            "max" : [
                0.017189735546708107,
                0.018275823444128036,
                0.01735282503068447
            ],
            "min" : [
                -0.01726510562002659,
                -0.007235696539282799,
                -0.01709987409412861
            ],
            "type" : "VEC3"
        },
        {
            "bufferView" : 5,
            "componentType" : 5126,
            "count" : 1664,
            "type" : "VEC3"
        },
        {
            "bufferView" : 6,
            "componentType" : 5126,
            "count" : 1664,
            "type" : "VEC2"
        },
        {
            "bufferView" : 7,
            "componentType" : 5123,
            "count" : 2490,
            "type" : "SCALAR"
        },
        {
            "bufferView" : 8,
            "componentType" : 5126,
            "count" : 5600,
            "max" : [
                0.07498972862958908,
                0.012342425063252449,
                0.0734834298491478
            ],
            "min" : [
                -0.07499905675649643,
                -0.0005882288096472621,
                -0.07356850802898407
            ],
            "type" : "VEC3"
        },
        {
            "bufferView" : 9,
            "componentType" : 5126,
            "count" : 5600,
            "type" : "VEC3"
        },
        {
            "bufferView" : 10,
            "componentType" : 5123,
            "count" : 8400,
            "type" : "SCALAR"
        },
        {
            "bufferView" : 11,
            "componentType" : 5126,
            "count" : 6400,
            "max" : [
                0.08036842197179794,
                0.008206666447222233,
                0.08036402612924576
            ],
            "min" : [
                -0.08035505563020706,
                -0.0005881067481823266,
                -0.08036825060844421
            ],
            "type" : "VEC3"
        },
        {
            "bufferView" : 12,
            "componentType" : 5126,
            "count" : 6400,
            "type" : "VEC3"
        },
        {
            "bufferView" : 13,
            "componentType" : 5123,
            "count" : 9600,
            "type" : "SCALAR"
        }
    ],
    "bufferViews" : [
        {
            "buffer" : 0,
            "byteLength" : 13056,
            "byteOffset" : 0
        },
        {
            "buffer" : 0,
            "byteLength" : 13056,
            "byteOffset" : 13056
        },
        {
            "buffer" : 0,
            "byteLength" : 8704,
            "byteOffset" : 26112
        },
        {
            "buffer" : 0,
            "byteLength" : 3432,
            "byteOffset" : 34816
        },
        {
            "buffer" : 0,
            "byteLength" : 19968,
            "byteOffset" : 38248
        },
        {
            "buffer" : 0,
            "byteLength" : 19968,
            "byteOffset" : 58216
        },
        {
            "buffer" : 0,
            "byteLength" : 13312,
            "byteOffset" : 78184
        },
        {
            "buffer" : 0,
            "byteLength" : 4980,
            "byteOffset" : 91496
        },
        {
            "buffer" : 0,
            "byteLength" : 67200,
            "byteOffset" : 96476
        },
        {
            "buffer" : 0,
            "byteLength" : 67200,
            "byteOffset" : 163676
        },
        {
            "buffer" : 0,
            "byteLength" : 16800,
            "byteOffset" : 230876
        },
        {
            "buffer" : 0,
            "byteLength" : 76800,
            "byteOffset" : 247676
        },
        {
            "buffer" : 0,
            "byteLength" : 76800,
            "byteOffset" : 324476
        },
        {
            "buffer" : 0,
            "byteLength" : 19200,
            "byteOffset" : 401276
        }
    ],
    "buffers" : [
        {
            "byteLength" : 420476,
            "uri" : "../daisy.bin"
        }
    ]
}
