{
    "asset" : {
        "generator" : "Khronos glTF Blender I/O v1.4.40",
        "version" : "2.0"
    },
    "scene" : 0,
    "scenes" : [
        {
            "name" : "Scene",
            "nodes" : [
                0
            ]
        }
    ],
    "nodes" : [
        {
            "mesh" : 0,
            "name" : "Mesh"
        }
    ],
    "materials" : [
        {
            "doubleSided" : true,
            "name" : "vertHerbe+",
            "pbrMetallicRoughness" : {
                "baseColorFactor" : [
                    0.1691039502620697,
                    0.2563552260398865,
                    0.05027829110622406,
                    1
                ],
                "metallicFactor" : 0,
                "roughnessFactor" : 0.5
            }
        }
    ],
    "meshes" : [
        {
            "name" : "Mesh",
            "primitives" : [
                {
                    "attributes" : {
                        "POSITION" : 0,
                        "NORMAL" : 1,
                        "TEXCOORD_0" : 2
                    },
                    "indices" : 3,
                    "material" : 0
                }
            ]
        }
    ],
    "accessors" : [
        {
            "bufferView" : 0,
            "componentType" : 5126,
            "count" : 758786,
            "max" : [
                -0.6026449203491211,
                1.2529774904251099,
                -0.109524667263031
            ],
            "min" : [
                -2.5762555599212646,
                0.7489036321640015,
                -2.820880651473999
            ],
            "type" : "VEC3"
        },
        {
            "bufferView" : 1,
            "componentType" : 5126,
            "count" : 758786,
            "type" : "VEC3"
        },
        {
            "bufferView" : 2,
            "componentType" : 5126,
            "count" : 758786,
            "type" : "VEC2"
        },
        {
            "bufferView" : 3,
            "componentType" : 5125,
            "count" : 1080000,
            "type" : "SCALAR"
        }
    ],
    "bufferViews" : [
        {
            "buffer" : 0,
            "byteLength" : 9105432,
            "byteOffset" : 0
        },
        {
            "buffer" : 0,
            "byteLength" : 9105432,
            "byteOffset" : 9105432
        },
        {
            "buffer" : 0,
            "byteLength" : 6070288,
            "byteOffset" : 18210864
        },
        {
            "buffer" : 0,
            "byteLength" : 4320000,
            "byteOffset" : 24281152
        }
    ],
    "buffers" : [
        {
            "byteLength" : 28601152,
            "uri" : "../grass.bin"
        }
    ]
}
