{
    "asset" : {
        "generator" : "Khronos glTF Blender I/O v1.4.40",
        "version" : "2.0"
    },
    "extensionsUsed" : [
        "KHR_materials_transmission"
    ],
    "scene" : 0,
    "scenes" : [
        {
            "name" : "Scene",
            "nodes" : [
                0,
                1,
                2,
                3,
                4,
                5,
                6,
                7
            ]
        }
    ],
    "nodes" : [
        {
            "mesh" : 0,
            "name" : "petaleAutour.004",
            "rotation" : [
                0,
                -0.3826834559440613,
                0,
                0.9238795638084412
            ],
            "scale" : [
                0.051487959921360016,
                0.051487959921360016,
                0.051487959921360016
            ],
            "translation" : [
                5.7366443797945976e-05,
                9.335903450846672e-05,
                -4.927287227474153e-05
            ]
        },
        {
            "mesh" : 1,
            "name" : "petaleAutour.003",
            "rotation" : [
                0,
                -0.3826834559440613,
                0,
                0.9238795638084412
            ],
            "scale" : [
                0.051487959921360016,
                0.051487959921360016,
                0.051487959921360016
            ],
            "translation" : [
                5.7366443797945976e-05,
                9.335903450846672e-05,
                -4.927287227474153e-05
            ]
        },
        {
            "mesh" : 2,
            "name" : "petaleAutour.001",
            "rotation" : [
                -0.00767188286408782,
                -0.4221433103084564,
                -0.008718484081327915,
                0.9064547419548035
            ],
            "scale" : [
                0.051487959921360016,
                0.051487959921360016,
                0.051487959921360016
            ],
            "translation" : [
                5.7366443797945976e-05,
                9.335903450846672e-05,
                -4.927287227474153e-05
            ]
        },
        {
            "mesh" : 3,
            "name" : "petaleCoeur.004",
            "scale" : [
                0.051487959921360016,
                0.051487959921360016,
                0.051487959921360016
            ],
            "translation" : [
                5.7366443797945976e-05,
                9.335903450846672e-05,
                -4.927287227474153e-05
            ]
        },
        {
            "mesh" : 4,
            "name" : "petaleCoeur.003",
            "scale" : [
                0.051487959921360016,
                0.051487959921360016,
                0.051487959921360016
            ],
            "translation" : [
                5.7366443797945976e-05,
                9.335903450846672e-05,
                -4.927287227474153e-05
            ]
        },
        {
            "mesh" : 5,
            "name" : "petaleCoeur.002",
            "scale" : [
                0.051487959921360016,
                0.051487959921360016,
                0.051487959921360016
            ],
            "translation" : [
                5.7366443797945976e-05,
                9.335903450846672e-05,
                -4.927287227474153e-05
            ]
        },
        {
            "mesh" : 6,
            "name" : "petaleCoeur.001",
            "scale" : [
                0.051487959921360016,
                0.051487959921360016,
                0.051487959921360016
            ],
            "translation" : [
                5.7366443797945976e-05,
                9.335903450846672e-05,
                -4.927287227474153e-05
            ]
        },
        {
            "mesh" : 7,
            "name" : "petaleAutour.002",
            "rotation" : [
                0,
                -0.3826834559440613,
                0,
                0.9238795638084412
            ],
            "scale" : [
                0.05148795619606972,
                0.051487959921360016,
                0.05148795619606972
            ],
            "translation" : [
                5.7366443797945976e-05,
                9.335903450846672e-05,
                -4.927287227474153e-05
            ]
        }
    ],
    "materials" : [
        {
            "doubleSided" : true,
            "extensions" : {
                "KHR_materials_transmission" : {
                    "transmissionFactor" : 0.09302327036857605
                }
            },
            "name" : "Rouge",
            "pbrMetallicRoughness" : {
                "baseColorTexture" : {
                    "index" : 0,
                    "texCoord" : 0
                },
                "metallicFactor" : 0,
                "roughnessFactor" : 0.5
            }
        }
    ],
    "meshes" : [
        {
            "name" : "Circle.074",
            "primitives" : [
                {
                    "attributes" : {
                        "POSITION" : 0,
                        "NORMAL" : 1,
                        "TEXCOORD_0" : 2
                    },
                    "indices" : 3,
                    "material" : 0
                }
            ]
        },
        {
            "name" : "Circle.072",
            "primitives" : [
                {
                    "attributes" : {
                        "POSITION" : 4,
                        "NORMAL" : 5,
                        "TEXCOORD_0" : 6
                    },
                    "indices" : 7,
                    "material" : 0
                }
            ]
        },
        {
            "name" : "Circle.062",
            "primitives" : [
                {
                    "attributes" : {
                        "POSITION" : 8,
                        "NORMAL" : 9,
                        "TEXCOORD_0" : 10
                    },
                    "indices" : 11,
                    "material" : 0
                }
            ]
        },
        {
            "name" : "Circle.015",
            "primitives" : [
                {
                    "attributes" : {
                        "POSITION" : 12,
                        "NORMAL" : 13,
                        "TEXCOORD_0" : 14
                    },
                    "indices" : 15,
                    "material" : 0
                }
            ]
        },
        {
            "name" : "Circle.014",
            "primitives" : [
                {
                    "attributes" : {
                        "POSITION" : 16,
                        "NORMAL" : 17,
                        "TEXCOORD_0" : 18
                    },
                    "indices" : 19,
                    "material" : 0
                }
            ]
        },
        {
            "name" : "Circle.013",
            "primitives" : [
                {
                    "attributes" : {
                        "POSITION" : 20,
                        "NORMAL" : 21,
                        "TEXCOORD_0" : 22
                    },
                    "indices" : 23,
                    "material" : 0
                }
            ]
        },
        {
            "name" : "Circle.012",
            "primitives" : [
                {
                    "attributes" : {
                        "POSITION" : 24,
                        "NORMAL" : 25,
                        "TEXCOORD_0" : 26
                    },
                    "indices" : 27,
                    "material" : 0
                }
            ]
        },
        {
            "name" : "Circle.011",
            "primitives" : [
                {
                    "attributes" : {
                        "POSITION" : 28,
                        "NORMAL" : 29,
                        "TEXCOORD_0" : 30
                    },
                    "indices" : 31,
                    "material" : 0
                }
            ]
        }
    ],
    "textures" : [
        {
            "sampler" : 0,
            "source" : 0
        }
    ],
    "images" : [
        {
            "bufferView" : 4,
            "mimeType" : "image/jpeg",
            "name" : "psd_textureTULIPE02_RECTANGLE"
        }
    ],
    "accessors" : [
        {
            "bufferView" : 0,
            "componentType" : 5126,
            "count" : 6656,
            "max" : [
                -0.05303893983364105,
                4.384145259857178,
                1.2884521484375
            ],
            "min" : [
                -1.8085254430770874,
                0.03276148438453674,
                -1.158155083656311
            ],
            "type" : "VEC3"
        },
        {
            "bufferView" : 1,
            "componentType" : 5126,
            "count" : 6656,
            "type" : "VEC3"
        },
        {
            "bufferView" : 2,
            "componentType" : 5126,
            "count" : 6656,
            "type" : "VEC2"
        },
        {
            "bufferView" : 3,
            "componentType" : 5123,
            "count" : 9984,
            "type" : "SCALAR"
        },
        {
            "bufferView" : 5,
            "componentType" : 5126,
            "count" : 6656,
            "max" : [
                1.2634961605072021,
                4.384145259857178,
                2.0673162937164307
            ],
            "min" : [
                -1.178239345550537,
                0.03276143968105316,
                0.05322343856096268
            ],
            "type" : "VEC3"
        },
        {
            "bufferView" : 6,
            "componentType" : 5126,
            "count" : 6656,
            "type" : "VEC3"
        },
        {
            "bufferView" : 7,
            "componentType" : 5126,
            "count" : 6656,
            "type" : "VEC2"
        },
        {
            "bufferView" : 8,
            "componentType" : 5123,
            "count" : 9984,
            "type" : "SCALAR"
        },
        {
            "bufferView" : 9,
            "componentType" : 5126,
            "count" : 6656,
            "max" : [
                1.7565410137176514,
                4.199526786804199,
                1.238115668296814
            ],
            "min" : [
                0.051026854664087296,
                0.025997325778007507,
                -1.3886842727661133
            ],
            "type" : "VEC3"
        },
        {
            "bufferView" : 10,
            "componentType" : 5126,
            "count" : 6656,
            "type" : "VEC3"
        },
        {
            "bufferView" : 11,
            "componentType" : 5126,
            "count" : 6656,
            "type" : "VEC2"
        },
        {
            "bufferView" : 12,
            "componentType" : 5123,
            "count" : 9984,
            "type" : "SCALAR"
        },
        {
            "bufferView" : 13,
            "componentType" : 5126,
            "count" : 6656,
            "max" : [
                -0.050519198179244995,
                3.6640713214874268,
                1.0058528184890747
            ],
            "min" : [
                -1.3850817680358887,
                0.23739226162433624,
                -0.9371936321258545
            ],
            "type" : "VEC3"
        },
        {
            "bufferView" : 14,
            "componentType" : 5126,
            "count" : 6656,
            "type" : "VEC3"
        },
        {
            "bufferView" : 15,
            "componentType" : 5126,
            "count" : 6656,
            "type" : "VEC2"
        },
        {
            "bufferView" : 16,
            "componentType" : 5123,
            "count" : 9984,
            "type" : "SCALAR"
        },
        {
            "bufferView" : 17,
            "componentType" : 5126,
            "count" : 6656,
            "max" : [
                0.9958686232566833,
                3.6640713214874268,
                1.3849273920059204
            ],
            "min" : [
                -0.9491906762123108,
                0.23739226162433624,
                0.05053511634469032
            ],
            "type" : "VEC3"
        },
        {
            "bufferView" : 18,
            "componentType" : 5126,
            "count" : 6656,
            "type" : "VEC3"
        },
        {
            "bufferView" : 19,
            "componentType" : 5126,
            "count" : 6656,
            "type" : "VEC2"
        },
        {
            "bufferView" : 20,
            "componentType" : 5123,
            "count" : 9984,
            "type" : "SCALAR"
        },
        {
            "bufferView" : 21,
            "componentType" : 5126,
            "count" : 6656,
            "max" : [
                1.384598731994629,
                3.6640713214874268,
                0.961068332195282
            ],
            "min" : [
                0.05054466426372528,
                0.23739226162433624,
                -0.9857587218284607
            ],
            "type" : "VEC3"
        },
        {
            "bufferView" : 22,
            "componentType" : 5126,
            "count" : 6656,
            "type" : "VEC3"
        },
        {
            "bufferView" : 23,
            "componentType" : 5126,
            "count" : 6656,
            "type" : "VEC2"
        },
        {
            "bufferView" : 24,
            "componentType" : 5123,
            "count" : 9984,
            "type" : "SCALAR"
        },
        {
            "bufferView" : 25,
            "componentType" : 5126,
            "count" : 6656,
            "max" : [
                0.9728240370750427,
                3.6640713214874268,
                -0.050547823309898376
            ],
            "min" : [
                -0.9755250811576843,
                0.23739226162433624,
                -1.384696364402771
            ],
            "type" : "VEC3"
        },
        {
            "bufferView" : 26,
            "componentType" : 5126,
            "count" : 6656,
            "type" : "VEC3"
        },
        {
            "bufferView" : 27,
            "componentType" : 5126,
            "count" : 6656,
            "type" : "VEC2"
        },
        {
            "bufferView" : 28,
            "componentType" : 5123,
            "count" : 9984,
            "type" : "SCALAR"
        },
        {
            "bufferView" : 29,
            "componentType" : 5126,
            "count" : 6656,
            "max" : [
                1.209617018699646,
                4.66018009185791,
                -0.05357230454683304
            ],
            "min" : [
                -1.2422034740447998,
                -0.0005327463150024414,
                -1.7923786640167236
            ],
            "type" : "VEC3"
        },
        {
            "bufferView" : 30,
            "componentType" : 5126,
            "count" : 6656,
            "type" : "VEC3"
        },
        {
            "bufferView" : 31,
            "componentType" : 5126,
            "count" : 6656,
            "type" : "VEC2"
        },
        {
            "bufferView" : 32,
            "componentType" : 5123,
            "count" : 9984,
            "type" : "SCALAR"
        }
    ],
    "bufferViews" : [
        {
            "buffer" : 0,
            "byteLength" : 79872,
            "byteOffset" : 0
        },
        {
            "buffer" : 0,
            "byteLength" : 79872,
            "byteOffset" : 79872
        },
        {
            "buffer" : 0,
            "byteLength" : 53248,
            "byteOffset" : 159744
        },
        {
            "buffer" : 0,
            "byteLength" : 19968,
            "byteOffset" : 212992
        },
        {
            "buffer" : 0,
            "byteLength" : 757930,
            "byteOffset" : 232960
        },
        {
            "buffer" : 0,
            "byteLength" : 79872,
            "byteOffset" : 990892
        },
        {
            "buffer" : 0,
            "byteLength" : 79872,
            "byteOffset" : 1070764
        },
        {
            "buffer" : 0,
            "byteLength" : 53248,
            "byteOffset" : 1150636
        },
        {
            "buffer" : 0,
            "byteLength" : 19968,
            "byteOffset" : 1203884
        },
        {
            "buffer" : 0,
            "byteLength" : 79872,
            "byteOffset" : 1223852
        },
        {
            "buffer" : 0,
            "byteLength" : 79872,
            "byteOffset" : 1303724
        },
        {
            "buffer" : 0,
            "byteLength" : 53248,
            "byteOffset" : 1383596
        },
        {
            "buffer" : 0,
            "byteLength" : 19968,
            "byteOffset" : 1436844
        },
        {
            "buffer" : 0,
            "byteLength" : 79872,
            "byteOffset" : 1456812
        },
        {
            "buffer" : 0,
            "byteLength" : 79872,
            "byteOffset" : 1536684
        },
        {
            "buffer" : 0,
            "byteLength" : 53248,
            "byteOffset" : 1616556
        },
        {
            "buffer" : 0,
            "byteLength" : 19968,
            "byteOffset" : 1669804
        },
        {
            "buffer" : 0,
            "byteLength" : 79872,
            "byteOffset" : 1689772
        },
        {
            "buffer" : 0,
            "byteLength" : 79872,
            "byteOffset" : 1769644
        },
        {
            "buffer" : 0,
            "byteLength" : 53248,
            "byteOffset" : 1849516
        },
        {
            "buffer" : 0,
            "byteLength" : 19968,
            "byteOffset" : 1902764
        },
        {
            "buffer" : 0,
            "byteLength" : 79872,
            "byteOffset" : 1922732
        },
        {
            "buffer" : 0,
            "byteLength" : 79872,
            "byteOffset" : 2002604
        },
        {
            "buffer" : 0,
            "byteLength" : 53248,
            "byteOffset" : 2082476
        },
        {
            "buffer" : 0,
            "byteLength" : 19968,
            "byteOffset" : 2135724
        },
        {
            "buffer" : 0,
            "byteLength" : 79872,
            "byteOffset" : 2155692
        },
        {
            "buffer" : 0,
            "byteLength" : 79872,
            "byteOffset" : 2235564
        },
        {
            "buffer" : 0,
            "byteLength" : 53248,
            "byteOffset" : 2315436
        },
        {
            "buffer" : 0,
            "byteLength" : 19968,
            "byteOffset" : 2368684
        },
        {
            "buffer" : 0,
            "byteLength" : 79872,
            "byteOffset" : 2388652
        },
        {
            "buffer" : 0,
            "byteLength" : 79872,
            "byteOffset" : 2468524
        },
        {
            "buffer" : 0,
            "byteLength" : 53248,
            "byteOffset" : 2548396
        },
        {
            "buffer" : 0,
            "byteLength" : 19968,
            "byteOffset" : 2601644
        }
    ],
    "samplers" : [
        {
            "magFilter" : 9729,
            "minFilter" : 9986
        }
    ],
    "buffers" : [
        {
            "byteLength" : 2621612,
            "uri" : "data:application/octet-stream;base64,"
        }
    ]
}
